<mxfile host="app.diagrams.net" modified="2023-08-14T05:37:32.505Z" agent="Mozilla/5.0 (Windows NT 10.0; Win64; x64) AppleWebKit/537.36 (KHTML, like Gecko) Chrome/115.0.0.0 Safari/537.36" etag="l8d9P2S5m_1aP3wTMRb9" version="21.6.8" type="device">
  <diagram name="Page-1" id="ui6D4H1IfYaig3A_3YC3">
    <mxGraphModel dx="1434" dy="2478" grid="1" gridSize="10" guides="1" tooltips="1" connect="1" arrows="1" fold="1" page="1" pageScale="1" pageWidth="1169" pageHeight="1654" math="0" shadow="0">
      <root>
        <mxCell id="0" />
        <mxCell id="1" parent="0" />
        <mxCell id="-Fnx9VIn55Wix6sGVatm-2" style="edgeStyle=orthogonalEdgeStyle;rounded=0;orthogonalLoop=1;jettySize=auto;html=1;exitX=0.5;exitY=1;exitDx=0;exitDy=0;exitPerimeter=0;" parent="1" edge="1">
          <mxGeometry relative="1" as="geometry">
            <mxPoint x="565" y="-1340" as="targetPoint" />
            <mxPoint x="565" y="-1410" as="sourcePoint" />
          </mxGeometry>
        </mxCell>
        <mxCell id="-Fnx9VIn55Wix6sGVatm-6" style="edgeStyle=orthogonalEdgeStyle;rounded=0;orthogonalLoop=1;jettySize=auto;html=1;exitX=0.5;exitY=1;exitDx=0;exitDy=0;" parent="1" source="-Fnx9VIn55Wix6sGVatm-3" edge="1">
          <mxGeometry relative="1" as="geometry">
            <mxPoint x="565" y="-1220" as="targetPoint" />
          </mxGeometry>
        </mxCell>
        <mxCell id="-Fnx9VIn55Wix6sGVatm-3" value="Input (A, B, T)" style="shape=parallelogram;html=1;strokeWidth=2;perimeter=parallelogramPerimeter;whiteSpace=wrap;rounded=1;arcSize=12;size=0.23;" parent="1" vertex="1">
          <mxGeometry x="487.5" y="-1340" width="155" height="60" as="geometry" />
        </mxCell>
        <mxCell id="-Fnx9VIn55Wix6sGVatm-4" value="Start" style="strokeWidth=2;html=1;shape=mxgraph.flowchart.terminator;whiteSpace=wrap;" parent="1" vertex="1">
          <mxGeometry x="502.5" y="-1470" width="125" height="60" as="geometry" />
        </mxCell>
        <mxCell id="-Fnx9VIn55Wix6sGVatm-9" style="edgeStyle=orthogonalEdgeStyle;rounded=0;orthogonalLoop=1;jettySize=auto;html=1;exitX=0.5;exitY=1;exitDx=0;exitDy=0;entryX=0.5;entryY=0;entryDx=0;entryDy=0;" parent="1" source="-Fnx9VIn55Wix6sGVatm-7" target="-Fnx9VIn55Wix6sGVatm-8" edge="1">
          <mxGeometry relative="1" as="geometry" />
        </mxCell>
        <mxCell id="-Fnx9VIn55Wix6sGVatm-7" value="L = 0.5 * (A + B) * T" style="rounded=1;whiteSpace=wrap;html=1;absoluteArcSize=1;arcSize=14;strokeWidth=2;" parent="1" vertex="1">
          <mxGeometry x="500" y="-1220" width="130" height="70" as="geometry" />
        </mxCell>
        <mxCell id="-Fnx9VIn55Wix6sGVatm-11" style="edgeStyle=orthogonalEdgeStyle;rounded=0;orthogonalLoop=1;jettySize=auto;html=1;exitX=0.5;exitY=1;exitDx=0;exitDy=0;entryX=0.5;entryY=0;entryDx=0;entryDy=0;entryPerimeter=0;" parent="1" source="-Fnx9VIn55Wix6sGVatm-8" target="-Fnx9VIn55Wix6sGVatm-10" edge="1">
          <mxGeometry relative="1" as="geometry" />
        </mxCell>
        <mxCell id="-Fnx9VIn55Wix6sGVatm-8" value="Output (L)" style="shape=parallelogram;html=1;strokeWidth=2;perimeter=parallelogramPerimeter;whiteSpace=wrap;rounded=1;arcSize=12;size=0.23;" parent="1" vertex="1">
          <mxGeometry x="487.5" y="-1090" width="155" height="60" as="geometry" />
        </mxCell>
        <mxCell id="-Fnx9VIn55Wix6sGVatm-10" value="End" style="strokeWidth=2;html=1;shape=mxgraph.flowchart.terminator;whiteSpace=wrap;" parent="1" vertex="1">
          <mxGeometry x="502.5" y="-970" width="125" height="60" as="geometry" />
        </mxCell>
      </root>
    </mxGraphModel>
  </diagram>
</mxfile>
